name ./resultDataOpenSim/trcMotMarkerGrf/sub09/grf-13-04.mot
datacolumns 19
datarows 17
range 1.53600000 1.60000000
endheader

                time	     ground_force_vx	     ground_force_vy	     ground_force_vz	     ground_force_px	     ground_force_py	     ground_force_pz	   l_ground_force_vx	   l_ground_force_vy	   l_ground_force_vz	   l_ground_force_px	   l_ground_force_py	   l_ground_force_pz	     ground_torque_x	     ground_torque_y	     ground_torque_z	   l_ground_torque_x	   l_ground_torque_y	   l_ground_torque_z	
          1.53600000	        -30.30084837	        461.76023238	          0.03235943	          1.08416542	          0.00000000	          0.02760391	          0.00000000	          0.00000000	          0.00000000	          0.00000000	          0.00000000	          0.00000000	          0.00000000	          2.70486015	          0.00000000	          0.00000000	          0.00000000	          0.00000000	
          1.54000000	        -29.04937594	        462.46914194	          0.45868321	          1.08437122	          0.00000000	          0.02744954	          0.00000000	          0.00000000	          0.00000000	          0.00000000	          0.00000000	          0.00000000	          0.00000000	          2.82831997	          0.00000000	          0.00000000	          0.00000000	          0.00000000	
          1.54400000	        -26.19597786	        463.21958790	          0.02341619	          1.08433266	          0.00000000	          0.02737445	          0.00000000	          0.00000000	          0.00000000	          0.00000000	          0.00000000	          0.00000000	          0.00000000	          2.85109843	          0.00000000	          0.00000000	          0.00000000	          0.00000000	
          1.54800000	        -22.20862361	        464.03226522	         -1.16393860	          1.08414304	          0.00000000	          0.02736687	          0.00000000	          0.00000000	          0.00000000	          0.00000000	          0.00000000	          0.00000000	          0.00000000	          2.78827262	          0.00000000	          0.00000000	          0.00000000	          0.00000000	
          1.55200000	        -17.80707153	        464.97173858	         -2.88857970	          1.08390732	          0.00000000	          0.02740919	          0.00000000	          0.00000000	          0.00000000	          0.00000000	          0.00000000	          0.00000000	          0.00000000	          2.67047272	          0.00000000	          0.00000000	          0.00000000	          0.00000000	
          1.55600000	        -13.76921471	        466.13706267	         -4.87321279	          1.08373874	          0.00000000	          0.02748341	          0.00000000	          0.00000000	          0.00000000	          0.00000000	          0.00000000	          0.00000000	          0.00000000	          2.53645311	          0.00000000	          0.00000000	          0.00000000	          0.00000000	
          1.56000000	        -10.72476406	        467.66088345	         -6.81855846	          1.08371982	          0.00000000	          0.02756895	          0.00000000	          0.00000000	          0.00000000	          0.00000000	          0.00000000	          0.00000000	          0.00000000	          2.42459190	          0.00000000	          0.00000000	          0.00000000	          0.00000000	
          1.56400000	         -8.99315558	        469.68809517	         -8.44684746	          1.08387120	          0.00000000	          0.02764457	          0.00000000	          0.00000000	          0.00000000	          0.00000000	          0.00000000	          0.00000000	          0.00000000	          2.36590178	          0.00000000	          0.00000000	          0.00000000	          0.00000000	
          1.56800000	         -8.51741069	        472.32864730	         -9.54311517	          1.08415595	          0.00000000	          0.02769529	          0.00000000	          0.00000000	          0.00000000	          0.00000000	          0.00000000	          0.00000000	          0.00000000	          2.37988026	          0.00000000	          0.00000000	          0.00000000	          0.00000000	
          1.57200000	         -8.89972068	        475.62033010	         -9.98467235	          1.08449549	          0.00000000	          0.02771403	          0.00000000	          0.00000000	          0.00000000	          0.00000000	          0.00000000	          0.00000000	          0.00000000	          2.47301031	          0.00000000	          0.00000000	          0.00000000	          0.00000000	
          1.57600000	         -9.51257915	        479.53431843	         -9.76208290	          1.08480054	          0.00000000	          0.02770216	          0.00000000	          0.00000000	          0.00000000	          0.00000000	          0.00000000	          0.00000000	          0.00000000	          2.63897367	          0.00000000	          0.00000000	          0.00000000	          0.00000000	
          1.58000000	         -9.66212015	        484.00682839	         -8.98984359	          1.08497581	          0.00000000	          0.02766488	          0.00000000	          0.00000000	          0.00000000	          0.00000000	          0.00000000	          0.00000000	          0.00000000	          2.85996513	          0.00000000	          0.00000000	          0.00000000	          0.00000000	
          1.58400000	         -8.77204996	        488.95280676	         -7.89316871	          1.08494021	          0.00000000	          0.02761250	          0.00000000	          0.00000000	          0.00000000	          0.00000000	          0.00000000	          0.00000000	          0.00000000	          3.10931270	          0.00000000	          0.00000000	          0.00000000	          0.00000000	
          1.58800000	         -6.53598733	        494.26429871	         -6.76230740	          1.08468068	          0.00000000	          0.02756349	          0.00000000	          0.00000000	          0.00000000	          0.00000000	          0.00000000	          0.00000000	          0.00000000	          3.35593101	          0.00000000	          0.00000000	          0.00000000	          0.00000000	
          1.59200000	         -2.98768984	        499.83042195	         -5.89027305	          1.08423978	          0.00000000	          0.02753486	          0.00000000	          0.00000000	          0.00000000	          0.00000000	          0.00000000	          0.00000000	          0.00000000	          3.57043043	          0.00000000	          0.00000000	          0.00000000	          0.00000000	
          1.59600000	          1.52159139	        505.58442057	         -5.51315023	          1.08371229	          0.00000000	          0.02754523	          0.00000000	          0.00000000	          0.00000000	          0.00000000	          0.00000000	          0.00000000	          0.00000000	          3.73145449	          0.00000000	          0.00000000	          0.00000000	          0.00000000	
          1.60000000	          6.42493279	        511.54100051	         -5.76090991	          1.08318282	          0.00000000	          0.02760328	          0.00000000	          0.00000000	          0.00000000	          0.00000000	          0.00000000	          0.00000000	          0.00000000	          3.83011426	          0.00000000	          0.00000000	          0.00000000	          0.00000000	
